<?xml version="1.0" encoding="UTF-8" standalone="no"?>
<!-- Created with Inkscape (http://www.inkscape.org/) -->

<svg
   width="1000"
   height="1000"
   viewBox="0 0 264.58332 264.58334"
   version="1.1"
   id="svg5"
   xmlns="http://www.w3.org/2000/svg"
   xmlns:svg="http://www.w3.org/2000/svg"
   xmlns:rdf="http://www.w3.org/1999/02/22-rdf-syntax-ns#"
   xmlns:cc="http://creativecommons.org/ns#"
   xmlns:dc="http://purl.org/dc/elements/1.1/">
  <defs
     id="defs2" />
  <g
     id="layer2" />
  <g
     id="layer1">
    <rect
       style="fill:#f7f7f7;fill-opacity:1;stroke:none;stroke-width:10.5833;stroke-linecap:square;stroke-miterlimit:4;stroke-dasharray:none;stroke-opacity:1;paint-order:stroke markers fill"
       id="rect961"
       width="264.58334"
       height="264.58334"
       x="-6.7529299e-06"
       y="-6.7529299e-06" />
    <g
       id="g77816"
       transform="matrix(1.0126631,0,0,1.0132754,585.23344,-69.909515)"
       style="stroke-width:0.987197">
      <path
         id="path77725"
         style="fill:none;stroke:#0573e1;stroke-width:29.6159;stroke-linecap:round;stroke-miterlimit:4;stroke-dasharray:none;stroke-opacity:1;paint-order:fill markers stroke"
         d="m -1622.5607,676.1192 h 159.1231 v 0 c 2.77,0 5,2.23 5,4.99998 V 871.1192 c 0,2.76998 -2.23,4.99998 -5,4.99998 h -68.1406 v 47.27342 l -85.0918,-47.27342 h -116.7676 c -2.77,0 -5,-2.23 -5,-4.99998 v -96.44532"
         transform="scale(0.26458333)" />
      <path
         id="path77727"
         style="fill:none;stroke:#4d4d4d;stroke-width:7.83588;stroke-linecap:round;stroke-miterlimit:4;stroke-dasharray:none;stroke-opacity:1;paint-order:fill markers stroke"
         d="m -507.35451,152.04914 c -0.73289,0 -1.32292,0.59002 -1.32292,1.32291 v 50.27084 c 0,0.73289 0.59003,1.32291 1.32292,1.32291 h 18.02836 v 12.50776 l 22.51387,-12.50776 h 36.18694 c 0.73289,0 1.32291,-0.59002 1.32291,-1.32291 v -50.27084 c 0,-0.73289 -0.59002,-1.32291 -1.32291,-1.32291 z" />
    </g>
  </g>
  <metadata
     id="metadata856">
    <rdf:RDF>
      <cc:Work
         rdf:about="">
        <dc:creator>
          <cc:Agent>
            <dc:title>Inspire Studio</dc:title>
          </cc:Agent>
        </dc:creator>
        <cc:license
           rdf:resource="http://creativecommons.org/publicdomain/zero/1.0/" />
        <dc:description>Thank you for using this artwork. Feel free to visit our page https://www.pinterest.com.au/inspirestudiobox for more designs. We wish you have a wonderful day, everyday. Amitabha</dc:description>
      </cc:Work>
      <cc:License
         rdf:about="http://creativecommons.org/publicdomain/zero/1.0/">
        <cc:permits
           rdf:resource="http://creativecommons.org/ns#Reproduction" />
        <cc:permits
           rdf:resource="http://creativecommons.org/ns#Distribution" />
        <cc:permits
           rdf:resource="http://creativecommons.org/ns#DerivativeWorks" />
      </cc:License>
    </rdf:RDF>
  </metadata>
</svg>
